<svg width="16" height="14" viewBox="0 0 16 14" fill="none" xmlns="http://www.w3.org/2000/svg">
<path d="M15.5407 14H5.23808C5.08402 14 4.94922 13.8652 4.94922 13.7112V3.40855C4.94922 3.29301 5.02625 3.17746 5.12253 3.13895C5.23808 3.10043 5.35362 3.11969 5.43065 3.19672L15.7333 13.4993C15.8103 13.5764 15.8488 13.7112 15.791 13.8074C15.7333 13.9037 15.6562 14 15.5407 14ZM5.52694 13.4223H14.8474L5.52694 4.10181V13.4223Z" fill="black"/>
<path d="M6.28016 7.7029H5.39433C5.24027 7.7029 5.10547 7.5681 5.10547 7.41404C5.10547 7.25998 5.24027 7.12518 5.39433 7.12518H6.28016C6.43422 7.12518 6.56902 7.25998 6.56902 7.41404C6.56902 7.5681 6.43422 7.7029 6.28016 7.7029Z" fill="black"/>
<path d="M6.28016 10.9188H5.39433C5.24027 10.9188 5.10547 10.784 5.10547 10.63C5.10547 10.4759 5.24027 10.3411 5.39433 10.3411H6.28016C6.43422 10.3411 6.56902 10.4759 6.56902 10.63C6.56902 10.784 6.43422 10.9188 6.28016 10.9188Z" fill="black"/>
<path d="M7.16599 9.43599H5.39433C5.24027 9.43599 5.10547 9.30119 5.10547 9.14713C5.10547 8.99308 5.24027 8.85828 5.39433 8.85828H7.16599C7.32005 8.85828 7.45485 8.99308 7.45485 9.14713C7.45485 9.30119 7.32005 9.43599 7.16599 9.43599Z" fill="black"/>
<path d="M7.16599 12.4787H5.39433C5.24027 12.4787 5.10547 12.3439 5.10547 12.1898C5.10547 12.0357 5.24027 11.9009 5.39433 11.9009H7.16599C7.32005 11.9009 7.45485 12.0357 7.45485 12.1898C7.45485 12.3439 7.32005 12.4787 7.16599 12.4787Z" fill="black"/>
<path d="M1.03989 1.77163H0.288858C0.134801 1.77163 0 1.63682 0 1.48277C0 1.32871 0.134801 1.19391 0.288858 1.19391H1.03989C1.19395 1.19391 1.32875 1.32871 1.32875 1.48277C1.32875 1.63682 1.19395 1.77163 1.03989 1.77163Z" fill="black"/>
<path d="M3.83219 14H0.288858C0.134801 14 0 13.8652 0 13.7111V0.288858C0 0.134801 0.134801 0 0.288858 0H3.83219C3.98624 0 4.12105 0.134801 4.12105 0.288858V13.6919C4.12105 13.8652 3.98624 14 3.83219 14ZM0.577717 13.4223H3.54333V0.577717H0.577717V13.4223Z" fill="black"/>
<path d="M1.71389 2.71523H0.288858C0.134801 2.71523 0 2.58043 0 2.42637C0 2.27231 0.134801 2.13751 0.288858 2.13751H1.71389C1.86795 2.13751 2.00275 2.27231 2.00275 2.42637C2.00275 2.58043 1.86795 2.71523 1.71389 2.71523Z" fill="black"/>
<path d="M1.03989 3.79366H0.288858C0.134801 3.79366 0 3.65886 0 3.5048C0 3.35074 0.134801 3.21594 0.288858 3.21594H1.03989C1.19395 3.21594 1.32875 3.35074 1.32875 3.5048C1.32875 3.65886 1.19395 3.79366 1.03989 3.79366Z" fill="black"/>
<path d="M1.71389 4.73726H0.288858C0.134801 4.73726 0 4.60246 0 4.4484C0 4.29435 0.134801 4.15955 0.288858 4.15955H1.71389C1.86795 4.15955 2.00275 4.29435 2.00275 4.4484C2.00275 4.60246 1.86795 4.73726 1.71389 4.73726Z" fill="black"/>
<path d="M1.03989 5.83492H0.288858C0.134801 5.83492 0 5.70012 0 5.54606C0 5.392 0.134801 5.2572 0.288858 5.2572H1.03989C1.19395 5.2572 1.32875 5.392 1.32875 5.54606C1.32875 5.70012 1.19395 5.83492 1.03989 5.83492Z" fill="black"/>
<path d="M1.71389 6.77852H0.288858C0.134801 6.77852 0 6.64372 0 6.48966C0 6.33561 0.134801 6.20081 0.288858 6.20081H1.71389C1.86795 6.20081 2.00275 6.33561 2.00275 6.48966C2.00275 6.64372 1.86795 6.77852 1.71389 6.77852Z" fill="black"/>
<path d="M1.03989 7.85689H0.288858C0.134801 7.85689 0 7.72209 0 7.56803C0 7.41398 0.134801 7.27917 0.288858 7.27917H1.03989C1.19395 7.27917 1.32875 7.41398 1.32875 7.56803C1.32875 7.72209 1.19395 7.85689 1.03989 7.85689Z" fill="black"/>
<path d="M1.71389 8.80056H0.288858C0.134801 8.80056 0 8.66576 0 8.5117C0 8.35764 0.134801 8.22284 0.288858 8.22284H1.71389C1.86795 8.22284 2.00275 8.35764 2.00275 8.5117C2.00275 8.66576 1.86795 8.80056 1.71389 8.80056Z" fill="black"/>
<path d="M1.03989 9.89821H0.288858C0.134801 9.89821 0 9.76341 0 9.60935C0 9.4553 0.134801 9.3205 0.288858 9.3205H1.03989C1.19395 9.3205 1.32875 9.4553 1.32875 9.60935C1.32875 9.76341 1.19395 9.89821 1.03989 9.89821Z" fill="black"/>
<path d="M1.71389 10.8418H0.288858C0.134801 10.8418 0 10.707 0 10.553C0 10.3989 0.134801 10.2641 0.288858 10.2641H1.71389C1.86795 10.2641 2.00275 10.3989 2.00275 10.553C2.00275 10.707 1.86795 10.8418 1.71389 10.8418Z" fill="black"/>
<path d="M1.03989 11.9395H0.288858C0.134801 11.9395 0 11.8047 0 11.6506C0 11.4966 0.115543 11.3618 0.288858 11.3618H1.03989C1.19395 11.3618 1.32875 11.4966 1.32875 11.6506C1.32875 11.8047 1.19395 11.9395 1.03989 11.9395Z" fill="black"/>
</svg>
