<svg width="17" height="22" viewBox="0 0 17 22" fill="none" xmlns="http://www.w3.org/2000/svg">
<path d="M7.57269 13.4149V3.10416C7.57269 1.65386 6.59826 0.362179 5.19328 0.0675856C3.24443 -0.340313 1.54485 1.15532 1.54485 3.01352V13.4149C1.54485 13.5056 1.49953 13.5962 1.43155 13.6415C0.117206 14.8879 -0.403997 16.8367 0.343817 18.695C0.865021 19.9866 1.99807 21.0064 3.35773 21.3463C6.39431 22.1168 9.11364 19.8507 9.11364 16.9501C9.11364 15.681 8.59243 14.48 7.68599 13.6415C7.61801 13.5962 7.57269 13.5056 7.57269 13.4149ZM3.56168 20.2812C2.6779 20.032 1.90743 19.3974 1.49953 18.5816C0.661071 16.9274 1.2276 15.1372 2.51928 14.2081C2.60992 14.1401 2.65524 14.0494 2.65524 13.9588V3.12682C2.65524 2.12974 3.38039 1.20064 4.37748 1.10999C5.51053 0.996688 6.48496 1.90313 6.48496 3.01352V13.9361C6.48496 14.0494 6.53028 14.1401 6.62092 14.1854C7.48204 14.8426 8.00325 15.8623 8.00325 16.9727C8.00325 19.1935 5.89577 20.9384 3.56168 20.2812Z" fill="black"/>
<path d="M5.37372 14.7746V9.15466C5.37372 8.70144 5.01114 8.33887 4.55792 8.33887C4.1047 8.33887 3.74212 8.70144 3.74212 9.15466V14.7519C2.83568 15.0919 2.20117 15.953 2.20117 16.9501C2.20117 18.2417 3.24358 19.3068 4.55792 19.3068C5.8496 19.3068 6.91467 18.2644 6.91467 16.9501C6.91467 15.953 6.2575 15.0919 5.37372 14.7746Z" fill="black"/>
<path d="M15.7763 11.6474C15.459 11.3301 14.9605 11.3301 14.6432 11.6474L13.6235 12.6671V6.95653C13.6235 6.52597 13.2609 6.16339 12.8304 6.16339C12.3998 6.16339 12.0372 6.52597 12.0372 6.95653V12.6444L11.0175 11.6247C10.7002 11.3074 10.2017 11.3074 9.88443 11.6247C9.56717 11.942 9.56717 12.4405 9.88443 12.7578L12.2638 15.1372C12.4225 15.2958 12.6264 15.3638 12.8304 15.3638C13.0343 15.3638 13.2383 15.2731 13.3969 15.1372L15.7763 12.7578C16.0935 12.4632 16.0935 11.942 15.7763 11.6474Z" fill="black"/>
</svg>
