<svg width="23" height="27" viewBox="0 0 23 27" fill="none" xmlns="http://www.w3.org/2000/svg">
<path d="M11.7998 0.00157715C11.7302 0.00909845 11.6652 0.039888 11.6154 0.0889548L9.13073 2.26368C9.09768 2.29284 9.07122 2.3287 9.05309 2.36887C9.03497 2.40905 9.02559 2.45262 9.02559 2.4967C9.02559 2.54077 9.03497 2.58434 9.05309 2.62452C9.07122 2.66469 9.09768 2.70055 9.13073 2.72971L11.6154 4.90444C11.6452 4.93536 11.6812 4.95975 11.7209 4.97607C11.7607 4.99238 11.8034 5.00025 11.8464 4.99919C11.8894 4.99814 11.9317 4.98817 11.9706 4.96992C12.0095 4.95167 12.0442 4.92555 12.0725 4.89319C12.1008 4.86083 12.1221 4.82294 12.135 4.78192C12.148 4.74091 12.1522 4.69766 12.1476 4.65492C12.1429 4.61217 12.1294 4.57087 12.108 4.5336C12.0865 4.49634 12.0576 4.46393 12.023 4.43843L10.1595 2.80737H20.9327L19.0692 4.43843C19.0346 4.46393 19.0057 4.49634 18.9842 4.5336C18.9628 4.57087 18.9493 4.61217 18.9447 4.65492C18.94 4.69766 18.9443 4.74091 18.9572 4.78192C18.9701 4.82294 18.9914 4.86083 19.0197 4.89319C19.048 4.92555 19.0827 4.95167 19.1216 4.96992C19.1606 4.98817 19.2028 4.99814 19.2458 4.99919C19.2888 5.00025 19.3315 4.99238 19.3713 4.97607C19.4111 4.95976 19.447 4.93536 19.4769 4.90444L21.9615 2.72971C21.9945 2.70055 22.021 2.66469 22.0391 2.62452C22.0573 2.58434 22.0666 2.54077 22.0666 2.4967C22.0666 2.45262 22.0573 2.40905 22.0391 2.36887C22.021 2.3287 21.9945 2.29284 21.9615 2.26368L19.4769 0.0889548C19.4473 0.0603252 19.4123 0.0378615 19.374 0.0228619C19.3357 0.00786235 19.2948 0.000623413 19.2536 0.00157715C19.1901 0.00349747 19.1286 0.024883 19.0776 0.0628515C19.0266 0.10082 18.9885 0.153547 18.9684 0.213894C18.9482 0.27424 18.9471 0.3393 18.9652 0.400297C18.9832 0.461293 19.0195 0.515277 19.0692 0.554962L20.9327 2.18602H10.1595L12.023 0.554962C12.0759 0.513377 12.1138 0.45575 12.1311 0.390736C12.1485 0.325721 12.1442 0.256845 12.1191 0.194449C12.0939 0.132053 12.0492 0.0795145 11.9916 0.0447348C11.934 0.00995503 11.8667 -0.00519371 11.7998 0.00157715ZM9.9557 6.84617C9.58962 6.84617 9.26828 7.04694 9.05308 7.33158C8.83788 7.61623 8.71339 7.99372 8.71339 8.39954V10.5743C8.7128 10.6154 8.72041 10.6563 8.73576 10.6945C8.7511 10.7327 8.77389 10.7675 8.80278 10.7968C8.83168 10.8261 8.86612 10.8494 8.90409 10.8653C8.94206 10.8812 8.98281 10.8894 9.02397 10.8894C9.06512 10.8894 9.10587 10.8812 9.14384 10.8653C9.18181 10.8494 9.21625 10.8261 9.24514 10.7968C9.27404 10.7675 9.29683 10.7327 9.31217 10.6945C9.32752 10.6563 9.33512 10.6154 9.33454 10.5743V8.39954C9.33454 8.12596 9.42191 7.8771 9.54807 7.71023C9.67422 7.54337 9.82372 7.4675 9.9557 7.4675H21.7577C21.8897 7.4675 22.0392 7.54337 22.1653 7.71023C22.2915 7.8771 22.3788 8.12596 22.3788 8.39954V24.5547C22.3788 24.8283 22.2915 25.0771 22.1653 25.244C22.0392 25.4109 21.8897 25.4868 21.7577 25.4868H12.4403C12.3991 25.4861 12.3582 25.4937 12.32 25.509C12.2818 25.5244 12.247 25.5471 12.2176 25.576C12.1883 25.6049 12.165 25.6394 12.1491 25.6774C12.1332 25.7154 12.125 25.7562 12.125 25.7974C12.125 25.8386 12.1332 25.8794 12.1491 25.9174C12.165 25.9554 12.1883 25.9898 12.2176 26.0188C12.247 26.0477 12.2818 26.0705 12.32 26.0858C12.3582 26.1011 12.3991 26.1087 12.4403 26.1081H21.7577C22.1238 26.1081 22.4451 25.8975 22.6603 25.6129C22.8755 25.3283 23 24.9605 23 24.5547V8.39954C23 7.99372 22.8755 7.61623 22.6603 7.33158C22.4451 7.04694 22.1238 6.84617 21.7577 6.84617H9.9557ZM2.45329 7.15683C2.38115 7.16956 2.31584 7.2074 2.26888 7.26363L0.0948317 9.74904C0.0639118 9.77891 0.0395267 9.81488 0.0232193 9.85466C0.00691201 9.89445 -0.00096269 9.93718 9.38413e-05 9.98017C0.00115037 10.0232 0.011115 10.0655 0.0293571 10.1044C0.0475993 10.1433 0.0737219 10.178 0.106072 10.2064C0.138422 10.2347 0.176295 10.256 0.217295 10.2689C0.258295 10.2818 0.301529 10.2861 0.344262 10.2814C0.386995 10.2767 0.428296 10.2633 0.465551 10.2418C0.502807 10.2204 0.535206 10.1914 0.560699 10.1568L2.19124 8.29274V24.0401L0.560699 22.1761C0.531578 22.1397 0.49465 22.1103 0.452648 22.0902C0.410647 22.07 0.364649 22.0595 0.31806 22.0596C0.257564 22.06 0.19852 22.0782 0.14818 22.1117C0.0978395 22.1453 0.0583935 22.1928 0.0346857 22.2485C0.010978 22.3042 0.00404067 22.3656 0.0147253 22.4252C0.02541 22.4847 0.0532518 22.5399 0.0948317 22.5838L2.26888 25.0693C2.29803 25.1023 2.33387 25.1288 2.37403 25.1469C2.4142 25.1651 2.45775 25.1744 2.50182 25.1744C2.54588 25.1744 2.58944 25.1651 2.6296 25.1469C2.66976 25.1288 2.7056 25.1023 2.73475 25.0693L4.9088 22.5838C4.93972 22.554 4.96411 22.518 4.98043 22.4782C4.99674 22.4384 5.00462 22.3957 5.00356 22.3527C5.00251 22.3097 4.99254 22.2674 4.9743 22.2284C4.95606 22.1895 4.92993 22.1548 4.89758 22.1265C4.86523 22.0982 4.82735 22.0769 4.78635 22.064C4.74534 22.051 4.70211 22.0468 4.65937 22.0514C4.61664 22.0561 4.57533 22.0696 4.53808 22.091C4.50082 22.1125 4.46842 22.1415 4.44293 22.1761L2.81239 24.0401V8.29274L4.44293 10.1568C4.46842 10.1914 4.50082 10.2204 4.53808 10.2418C4.57534 10.2633 4.61664 10.2767 4.65937 10.2814C4.7021 10.2861 4.74534 10.2818 4.78634 10.2689C4.82734 10.256 4.86521 10.2347 4.89756 10.2064C4.92991 10.178 4.95603 10.1433 4.97427 10.1044C4.99252 10.0655 5.00248 10.0232 5.00354 9.98017C5.00459 9.93718 4.99672 9.89445 4.98041 9.85466C4.9641 9.81488 4.93972 9.77891 4.9088 9.74904L2.73475 7.26363C2.70073 7.22342 2.65705 7.19252 2.60782 7.17384C2.55858 7.15516 2.50541 7.1493 2.45329 7.15683ZM8.98514 12.1179C8.90797 12.1276 8.83723 12.1659 8.78691 12.2252C8.7366 12.2845 8.71036 12.3606 8.71339 12.4383V13.0597C8.7128 13.1008 8.72041 13.1417 8.73576 13.1799C8.7511 13.2181 8.77389 13.2529 8.80278 13.2822C8.83168 13.3115 8.86612 13.3348 8.90409 13.3507C8.94206 13.3666 8.98281 13.3748 9.02397 13.3748C9.06512 13.3748 9.10587 13.3666 9.14384 13.3507C9.18181 13.3348 9.21625 13.3115 9.24514 13.2822C9.27404 13.2529 9.29683 13.2181 9.31217 13.1799C9.32752 13.1417 9.33512 13.1008 9.33454 13.0597V12.4383C9.33631 12.3932 9.32823 12.3483 9.31088 12.3067C9.29353 12.265 9.26731 12.2276 9.23406 12.1971C9.20081 12.1667 9.16132 12.1438 9.11833 12.1301C9.07534 12.1164 9.02989 12.1123 8.98514 12.1179ZM8.98514 14.6033C8.90797 14.613 8.83724 14.6513 8.78692 14.7106C8.7366 14.7699 8.71036 14.846 8.71339 14.9237V24.5547C8.71339 24.9605 8.83788 25.3283 9.05308 25.6129C9.26828 25.8976 9.58961 26.1081 9.9557 26.1081H10.5769C10.618 26.1087 10.6589 26.1011 10.6972 26.0858C10.7354 26.0705 10.7702 26.0477 10.7995 26.0188C10.8289 25.9898 10.8522 25.9554 10.8681 25.9174C10.884 25.8794 10.8922 25.8386 10.8922 25.7974C10.8922 25.7562 10.884 25.7154 10.8681 25.6774C10.8522 25.6394 10.8289 25.6049 10.7995 25.576C10.7702 25.5471 10.7354 25.5244 10.6972 25.509C10.6589 25.4937 10.618 25.4861 10.5769 25.4868H9.9557C9.82372 25.4868 9.67422 25.4109 9.54807 25.244C9.42191 25.0771 9.33454 24.8283 9.33454 24.5547V14.9237C9.33631 14.8787 9.32823 14.8337 9.31088 14.7921C9.29352 14.7504 9.26731 14.713 9.23406 14.6826C9.20081 14.6521 9.16131 14.6292 9.11833 14.6155C9.07534 14.6018 9.02989 14.5977 8.98514 14.6033Z" fill="black"/>
</svg>
