<svg width="25" height="27" viewBox="0 0 25 27" fill="none" xmlns="http://www.w3.org/2000/svg">
<path d="M24.6335 7.98254L12.9666 0.162278C12.6643 -0.0540927 12.2714 -0.0540927 11.9691 0.162278L0.392926 7.98254C0.151125 8.168 0 8.44619 0 8.75529V18.2756C0 18.5847 0.151125 18.8629 0.392926 19.0484L11.9994 26.8377C12.3016 27.0541 12.6945 27.0541 12.9968 26.8377L24.6032 19.0484C24.845 18.8629 24.9962 18.5847 24.9962 18.2756V8.75529C25.0264 8.44619 24.8753 8.168 24.6335 7.98254ZM14.4476 2.44963L21.9132 7.42616C22.4573 7.79708 22.4573 8.60074 21.9132 8.97167L16.5634 12.4954C16.2611 12.6809 15.8682 12.6809 15.5659 12.4954L13.4502 11.0736C13.2084 10.8881 13.027 10.6099 13.027 10.3008V3.19147C13.0572 2.48054 13.8431 2.0478 14.4476 2.44963ZM11.9691 3.22238V10.3317C11.9691 10.6408 11.818 10.9499 11.546 11.1045L9.43023 12.5263C9.12798 12.7118 8.73506 12.7118 8.43281 12.5263L3.11319 8.97167C2.56913 8.60074 2.56913 7.79708 3.11319 7.42616L10.5788 2.44963C11.1833 2.0478 11.9691 2.48054 11.9691 3.22238ZM2.50868 9.92988L6.7402 12.7427C7.28425 13.1136 7.28425 13.9173 6.7402 14.2882L2.50868 17.101C1.90418 17.5029 1.11833 17.0701 1.11833 16.3283V10.7026C1.11833 9.96079 1.90418 9.52805 2.50868 9.92988ZM10.5788 24.5813L3.11319 19.6047C2.56913 19.2338 2.56913 18.4302 3.11319 18.0592L8.46303 14.5355C8.76528 14.35 9.15821 14.35 9.46046 14.5355L11.5762 15.9574C11.818 16.1428 11.9994 16.421 11.9994 16.7301V23.8394C11.9691 24.5504 11.1833 24.9831 10.5788 24.5813ZM12.0296 14.8755L11.1228 14.2882C10.5788 13.9173 10.5788 13.1136 11.1228 12.7427L12.0296 12.1554C12.3318 11.9699 12.7248 11.9699 13.027 12.1554L13.9338 12.7427C14.4778 13.1136 14.4778 13.9173 13.9338 14.2882L13.027 14.8755C12.6945 15.0919 12.3318 15.0919 12.0296 14.8755ZM13.0572 23.8085V16.6992C13.0572 16.3901 13.2084 16.081 13.4804 15.9264L15.5962 14.5046C15.8984 14.3191 16.2913 14.3191 16.5936 14.5046L21.9434 18.0283C22.4875 18.3993 22.4875 19.2029 21.9434 19.5738L14.4476 24.5813C13.8431 24.9831 13.0572 24.5504 13.0572 23.8085ZM22.5177 17.101L18.2862 14.2882C17.7421 13.9173 17.7421 13.1136 18.2862 12.7427L22.5177 9.92988C23.1222 9.52805 23.9081 9.96079 23.9081 10.7026V16.3283C23.9081 17.0701 23.1222 17.5029 22.5177 17.101Z" fill="black"/>
</svg>
