<svg width="35" height="35" viewBox="0 0 35 35" fill="none" xmlns="http://www.w3.org/2000/svg">
<g opacity="0.6">
<path d="M13.3888 14.8039H21.8104C24.1244 14.8039 26 16.6384 26 18.902C26 21.1655 24.1238 23 21.808 23H11.2206C11.0988 23 11 22.9034 11 22.7843V22.3529C11 22.2338 11.0988 22.1373 11.2206 22.1373H21.808C23.6364 22.1373 25.1176 20.6891 25.1176 18.902C25.1176 17.1148 23.637 15.6667 21.8104 15.6667H13.3888L15.5681 17.7974C15.6543 17.8816 15.6543 18.0182 15.5681 18.1024L15.2561 18.4074C15.17 18.4916 15.0303 18.4916 14.9441 18.4074L12.0117 15.5403C11.8393 15.3719 11.8393 15.0987 12.0117 14.9303L14.9441 12.0632C15.0303 11.9789 15.17 11.9789 15.2561 12.0632L15.5681 12.3682C15.6543 12.4524 15.6543 12.589 15.5681 12.6732L13.3888 14.8039Z" fill="#2C3134"/>
<rect x="0.5" y="0.5" width="34" height="34" rx="17" stroke="#2C3134"/>
</g>
</svg>
