<svg width="43" height="43" viewBox="0 0 43 43" fill="none" xmlns="http://www.w3.org/2000/svg">
<circle cx="21.5" cy="21.5" r="21.5" fill="#FCA06C"/>
<path d="M30.7161 23.1476C30.6497 22.9886 30.4949 22.8848 30.323 22.8848H25.6618V12.2503C25.6618 12.0155 25.4712 11.825 25.2364 11.825H18.4303C18.1955 11.825 18.0049 12.0155 18.0049 12.2503V22.8848H13.3258C13.1539 22.8848 12.9991 22.9886 12.9327 23.1468C12.8672 23.3059 12.9029 23.4889 13.0246 23.6105L21.5109 32.1249C21.5909 32.2048 21.6989 32.25 21.8121 32.25C21.9252 32.25 22.0333 32.2048 22.1132 32.1257L30.6242 23.6114C30.7459 23.4897 30.7824 23.3068 30.7161 23.1476Z" fill="white"/>
</svg>
