<svg width="26" height="23" viewBox="0 0 26 23" fill="none" xmlns="http://www.w3.org/2000/svg">
<path d="M2.57386 1.35295H7.565C7.97809 1.35295 8.31335 1.04989 8.31335 0.676477C8.31335 0.303062 7.97809 0 7.565 0H1.204C0.790905 0 0.268555 0.431593 0.268555 0.805346V6.5554C0.268555 6.92882 0.603817 7.23188 1.01691 7.23188C1.43 7.23188 1.76526 6.92882 1.76526 6.5554V2.83309L7.7678 8.17421C7.9141 8.30647 8.15208 8.37242 8.34366 8.37242C8.53524 8.37242 8.75002 8.30647 8.89632 8.17421C9.18855 7.91005 9.20015 7.41757 8.90792 7.15307L2.57386 1.35295Z" fill="white"/>
<path d="M25.1504 0H18.7894C18.3763 0 18.041 0.303062 18.041 0.676477C18.041 1.04989 18.3763 1.35295 18.7894 1.35295H23.5059L17.1606 7.15307C16.8683 7.41724 16.8683 7.87758 17.1606 8.14174C17.3065 8.274 17.4981 8.35585 17.6897 8.35585C17.8812 8.35585 17.9793 8.29801 18.1252 8.16576L24.2146 2.58482V6.55507C24.2146 6.92848 24.5498 7.23154 24.9629 7.23154C25.376 7.23154 25.7113 6.92848 25.7113 6.55507V0.805008C25.7116 0.431593 25.5635 0 25.1504 0Z" fill="white"/>
<path d="M7.7678 15.0388L1.76526 20.3803V16.7026C1.76526 16.3292 1.43 16.0262 1.01691 16.0262C0.603817 16.0262 0.268555 16.3292 0.268555 16.7026V22.4527C0.268555 22.8261 0.790905 23.0003 1.204 23.0003H7.565C7.97809 23.0003 8.31335 22.6972 8.31335 22.3238C8.31335 21.9504 7.97809 21.6474 7.565 21.6474H2.52446L8.91952 15.9311C9.21175 15.667 9.16498 15.2712 8.87274 15.0071C8.58089 14.7425 8.05966 14.7747 7.7678 15.0388Z" fill="white"/>
<path d="M24.9613 16.026C24.5482 16.026 24.213 16.3291 24.213 16.7025V20.6281L18.1236 15.0387C17.8318 14.7745 17.4041 14.7745 17.1122 15.0387C16.82 15.3029 16.8432 15.6665 17.1354 15.931L23.5533 21.6472H18.7874C18.3743 21.6472 18.0391 21.9503 18.0391 22.3237C18.0391 22.6971 18.3743 23.0002 18.7874 23.0002H25.1484C25.5615 23.0002 25.7097 22.826 25.7097 22.4526V16.7025C25.7097 16.3287 25.3744 16.026 24.9613 16.026Z" fill="white"/>
</svg>
