<svg width="27" height="27" viewBox="0 0 27 27" fill="none" xmlns="http://www.w3.org/2000/svg">
<g clip-path="url(#clip0)">
<path d="M16.9333 8.18819C16.9333 6.2917 15.3953 4.75378 13.4989 4.75378C11.6024 4.75378 10.0645 6.29143 10.0645 8.18819C10.0645 10.0844 11.6021 11.6207 13.4989 11.6207C15.3951 11.6207 16.9333 10.0847 16.9333 8.18819ZM12.1772 8.18819C12.1772 7.45838 12.7688 6.86653 13.4989 6.86653C14.2268 6.86653 14.8186 7.45811 14.8186 8.18819C14.8186 8.91611 14.227 9.50795 13.4989 9.50795C12.769 9.50795 12.1772 8.91611 12.1772 8.18819Z" fill="#2C3134"/>
<path d="M24.9567 26.0574L15.5572 23.8156L24.9567 21.5719C25.2143 21.5101 25.3731 21.2528 25.3115 20.9971C25.2497 20.7395 24.994 20.581 24.7345 20.6426L14.9332 22.9813C15.9133 17.2192 21.6865 13.1952 21.6865 8.03871C21.6867 3.59856 18.021 0 13.4985 0C8.97569 0 5.31017 3.59856 5.31017 8.03871C5.31017 13.1952 11.1111 17.2192 12.065 22.9813L2.26025 20.6426C2.00456 20.581 1.74698 20.7395 1.68515 20.9971C1.62359 21.2528 1.78208 21.5101 2.03804 21.5719L11.4397 23.8156L2.03804 26.0574C1.78235 26.119 1.62386 26.3768 1.68515 26.6341C1.73726 26.8523 1.93355 27 2.15009 27C2.18573 27 2.22299 26.9962 2.26025 26.9868L12.3037 24.5921C12.5127 25.042 12.9682 25.3573 13.4985 25.3573C14.0287 25.3573 14.4823 25.042 14.6932 24.5921L24.7348 26.9868C24.7723 26.9962 24.8096 27 24.8466 27C25.0634 27 25.2591 26.8523 25.3118 26.6341C25.3731 26.3766 25.2146 26.1187 24.9567 26.0574ZM7.95104 8.18829C7.95104 5.12352 10.4337 2.64087 13.4985 2.64087C16.5616 2.64087 19.0459 5.12352 19.0459 8.18829C19.0459 11.2514 16.5616 13.7365 13.4985 13.7365C10.4337 13.7365 7.95104 11.2514 7.95104 8.18829Z" fill="#2C3134"/>
</g>
<defs>
<clipPath id="clip0">
<rect width="27" height="27" fill="white"/>
</clipPath>
</defs>
</svg>
