<svg width="14" height="14" viewBox="0 0 14 14" fill="none" xmlns="http://www.w3.org/2000/svg">
<path d="M7 14C8.38447 14 9.73785 13.5895 10.889 12.8203C12.0401 12.0511 12.9373 10.9579 13.4672 9.67879C13.997 8.3997 14.1356 6.99224 13.8655 5.63437C13.5954 4.2765 12.9287 3.02922 11.9497 2.05026C10.9708 1.07129 9.7235 0.404603 8.36563 0.134506C7.00776 -0.13559 5.6003 0.003033 4.32122 0.532846C3.04213 1.06266 1.94888 1.95987 1.17971 3.11101C0.410543 4.26215 0 5.61553 0 7C0.00207756 8.85588 0.740242 10.6351 2.05255 11.9475C3.36485 13.2598 5.14412 13.9979 7 14ZM7 0.777781C8.23064 0.777781 9.43364 1.14271 10.4569 1.82641C11.4801 2.51012 12.2776 3.4819 12.7486 4.61886C13.2195 5.75582 13.3427 7.0069 13.1027 8.2139C12.8626 9.42089 12.27 10.5296 11.3998 11.3998C10.5296 12.27 9.42089 12.8626 8.21389 13.1027C7.0069 13.3428 5.75582 13.2195 4.61886 12.7486C3.4819 12.2776 2.51012 11.4801 1.82641 10.4569C1.1427 9.43364 0.777778 8.23064 0.777778 7C0.779665 5.35035 1.43582 3.7688 2.60231 2.60231C3.76879 1.43583 5.35034 0.779668 7 0.777781Z" fill="white"/>
<path d="M6.9999 12.5999C8.10748 12.5999 9.19018 12.2715 10.1111 11.6561C11.032 11.0408 11.7498 10.1662 12.1736 9.14293C12.5975 8.11966 12.7084 6.99369 12.4923 5.9074C12.2762 4.82111 11.7429 3.82328 10.9597 3.04011C10.1765 2.25693 9.1787 1.72358 8.09241 1.50751C7.00611 1.29143 5.88014 1.40233 4.85687 1.82618C3.83361 2.25003 2.95901 2.9678 2.34367 3.88871C1.72834 4.80963 1.3999 5.89233 1.3999 6.9999C1.3999 8.48512 1.9899 9.9095 3.0401 10.9597C4.09031 12.0099 5.51469 12.5999 6.9999 12.5999ZM6.99989 3.22068C7.13562 3.22068 7.2683 3.26093 7.38116 3.33634C7.49401 3.41175 7.58197 3.51892 7.63391 3.64432C7.68586 3.76972 7.69945 3.9077 7.67297 4.04083C7.64649 4.17395 7.58113 4.29623 7.48515 4.3922C7.38918 4.48818 7.2669 4.55354 7.13377 4.58002C7.00065 4.6065 6.86267 4.59291 6.73727 4.54097C6.61187 4.48902 6.50469 4.40106 6.42929 4.28821C6.35388 4.17535 6.31363 4.04267 6.31363 3.90694C6.31363 3.81682 6.33138 3.72758 6.36587 3.64432C6.40036 3.56106 6.4509 3.48541 6.51463 3.42168C6.57836 3.35796 6.65401 3.30741 6.73727 3.27292C6.82053 3.23843 6.90977 3.22068 6.99989 3.22068ZM7.68616 6.1039V8.89088C7.68616 10.1994 7.82647 10.1185 9.08006 9.79675C8.09794 10.6523 6.31364 11.2943 6.31364 10.2009V7.41389C6.31364 6.10541 6.17333 6.18624 4.91976 6.50802C5.90188 5.65248 7.68616 5.01045 7.68616 6.1039Z" fill="white"/>
</svg>
