<svg width="155" height="102" viewBox="0 0 155 102" fill="none" xmlns="http://www.w3.org/2000/svg">
<path d="M45.9333 32.722H39.6393L45.7863 38.8305L30.101 54.4178L14.4121 38.8305L20.5594 32.722H14.2654L8.1192 38.8305L30.101 60.6705L52.0803 38.8305L45.9333 32.722Z" fill="white"/>
<path d="M19.6735 27.3523L15.836 31.1629H25.3484V47.491L28.9927 51.1102V27.3523H19.6735Z" fill="white"/>
<path d="M40.5284 27.3523H31.2044V51.0696L34.8508 47.4464V31.1629H44.3626L40.5284 27.3523Z" fill="white"/>
<path d="M52.0804 27.3418H71.2278V32.7218H64.8011V47.4198H58.5041V32.7218H52.0804V27.3418Z" fill="white"/>
<path d="M74.1013 47.4198H80.4143V27.3418H74.1013V47.4198Z" fill="white"/>
<path d="M83.2832 27.3418H102.431V32.7218H96.0058V47.4198H89.7099V32.7218H83.2832V27.3418Z" fill="white"/>
<path d="M127.342 27.3418H133.224L140.898 38.3721V27.3418H146.836V47.4198H140.898L133.265 36.3014V47.4198H127.342V27.3418Z" fill="white"/>
<path d="M116.77 27.3418H110.083L102.424 47.4198H108.852L109.848 44.077H113.427H117.007L118.001 47.4198H124.429L116.77 27.3418ZM113.427 39.699H111.213L113.427 32.7247L115.638 39.699H113.427Z" fill="white"/>
<path d="M67.7957 55.4598V55.5828C67.7957 58.5476 65.9577 60.7577 63.0039 60.7577C60.0888 60.7577 58.1257 58.3962 58.1257 55.7753C58.1257 53.0586 60.2117 50.7938 63.0155 50.7938C65.3377 50.7938 66.829 51.9607 67.4638 53.5114H66.192C65.7088 52.5093 64.5751 51.8093 63.0155 51.8093C60.7103 51.8093 59.3145 53.6069 59.3145 55.7203C59.3145 58.1632 60.9571 59.7411 63.0993 59.7411C65.0194 59.7411 66.4133 58.3554 66.5801 56.5027H62.5475V55.4598H67.7957Z" fill="white"/>
<path d="M77.5542 60.4545H76.1044L73.2595 56.5435H72.002V60.4545H70.8559V51.0951H73.5778C75.9249 51.0951 76.7678 52.5498 76.7678 53.84C76.7678 55.171 75.7736 56.2007 74.5855 56.4334L77.5542 60.4545ZM73.7019 52.1379H72.002V55.5004H73.7151C74.9574 55.5004 75.579 54.7456 75.579 53.84C75.579 52.7424 74.9163 52.1379 73.7019 52.1379Z" fill="white"/>
<path d="M84.4407 50.7938C87.536 50.7938 89.4267 53.1534 89.4267 55.7753C89.4267 58.5203 87.2863 60.7566 84.4407 60.7566C81.0018 60.7566 79.4411 58.0942 79.4411 55.7753C79.4411 53.0995 81.5404 50.7938 84.4407 50.7938ZM84.4271 59.7403C86.5818 59.7403 88.2387 58.0533 88.2387 55.7753C88.2387 53.539 86.6923 51.8093 84.4271 51.8093C82.2868 51.8093 80.6288 53.484 80.6288 55.7753C80.6288 58.0533 82.2868 59.7403 84.4271 59.7403Z" fill="white"/>
<path d="M92.3915 56.7215V51.0951H93.5385V56.8864C93.5385 58.5468 94.3803 59.7403 95.8305 59.7403C97.4749 59.7403 98.1232 58.5468 98.1232 56.8864V51.0951H99.2569V56.6941C99.2569 59.6863 97.6962 60.7566 95.8305 60.7566C94.1314 60.7566 92.3915 59.7129 92.3915 56.7215Z" fill="white"/>
<path d="M102.76 51.0951H105.496C107.512 51.0951 108.949 52.0005 108.949 53.9774C108.949 55.7743 107.87 56.8864 105.399 56.8864H103.907V60.4545H102.76V51.0951ZM105.592 52.1388H103.907V55.8567H105.551C107.291 55.8567 107.774 55.0211 107.774 54.0048C107.774 52.9069 107.126 52.1388 105.592 52.1388Z" fill="white"/>
</svg>
