<svg width="24" height="16" viewBox="0 0 24 16" fill="none" xmlns="http://www.w3.org/2000/svg">
<path d="M13.9638 7.72822L22.9131 0.229251C22.6362 0.0792032 22.3262 0.000420259 22.0112 0H1.9889C1.67388 0.000416741 1.36391 0.0791997 1.08691 0.229251L10.0362 7.72822C10.583 8.19724 11.2796 8.45508 12 8.45508C12.7204 8.45508 13.417 8.19724 13.9638 7.72822Z" fill="#2C3134"/>
<path d="M23.6777 0.952026L16.7188 6.78324L23.7286 14.1599C23.9073 13.8378 24.0009 13.4754 24.0005 13.1071V2.0929C24.0014 1.68995 23.8896 1.29478 23.6777 0.952026Z" fill="#2C3134"/>
<path d="M0.322761 0.952026C0.110895 1.29478 -0.000899878 1.68996 5.4553e-06 2.0929V13.1071C-0.000438288 13.4754 0.0931402 13.8378 0.271881 14.1599L7.28173 6.78324L0.322761 0.952026Z" fill="#2C3134"/>
<path d="M14.595 8.56242C13.8724 9.18213 12.9518 9.5228 11.9999 9.5228C11.048 9.5228 10.1274 9.18213 9.40484 8.56242L8.07941 7.45178L0.988281 14.9139C1.28871 15.1004 1.63517 15.1995 1.98877 15.2001H22.0111C22.3646 15.1995 22.7111 15.1004 23.0115 14.914L15.9204 7.45178L14.595 8.56242Z" fill="#2C3134"/>
</svg>
