<svg width="26" height="26" viewBox="0 0 26 26" fill="none" xmlns="http://www.w3.org/2000/svg">
<path d="M0.590145 25.3898C0.970674 25.7712 1.50342 26 2.03616 26C2.5689 26 3.06359 25.8093 3.48217 25.3898L12.9954 15.8555L22.5086 25.3898C22.8892 25.7712 23.4219 26 23.9547 26C24.4874 26 24.9821 25.8093 25.4007 25.3898C26.1998 24.5889 26.1998 23.2923 25.4007 22.5295L15.8874 12.9952L25.4007 3.46095C26.1998 2.66007 26.1998 1.3634 25.4007 0.60066C24.6016 -0.20022 23.3458 -0.20022 22.5467 0.60066L13.0335 10.1349L3.52022 0.60066C2.72111 -0.20022 1.46536 -0.20022 0.666251 0.60066C-0.132861 1.40154 -0.132861 2.6982 0.666251 3.46095L10.1795 12.9952L0.666251 22.5295C-0.208967 23.3304 -0.208967 24.5889 0.590145 25.3898Z" fill="white"/>
</svg>
