<svg width="33" height="26" viewBox="0 0 33 26" fill="none" xmlns="http://www.w3.org/2000/svg">
<path d="M16.9265 23.2787H0.987653C0.443147 23.2787 0 23.7252 0 24.2741C0 24.5404 0.102705 24.7896 0.289258 24.9779C0.475474 25.1658 0.72365 25.2695 0.987653 25.2695H16.9261C17.4706 25.2695 17.9138 24.8226 17.9138 24.2737C17.9138 23.7249 17.471 23.2787 16.9265 23.2787Z" fill="white"/>
<path d="M24.4694 11.6393H0.987653C0.443147 11.6393 0 12.0858 0 12.6347C0 12.901 0.102705 13.1502 0.289258 13.3385C0.475474 13.5264 0.72365 13.6301 0.987653 13.6301H24.4694C25.0139 13.6301 25.4571 13.1832 25.4571 12.6343C25.4574 12.0855 25.0139 11.6393 24.4694 11.6393Z" fill="white"/>
<path d="M32.0127 0H0.987653C0.443147 0 0 0.446515 0 0.995398C0 1.26176 0.102705 1.51094 0.289258 1.69918C0.475474 1.88708 0.72365 1.9908 0.987653 1.9908H32.0123C32.5569 1.9908 33 1.54394 33 0.995061C33 0.446178 32.5572 0 32.0127 0Z" fill="white"/>
</svg>
