<svg width="22" height="22" viewBox="0 0 22 22" fill="none" xmlns="http://www.w3.org/2000/svg">
<path fill-rule="evenodd" clip-rule="evenodd" d="M7.33252 7.59107L8.31272 6.12199C8.61582 5.66733 8.62193 5.07457 8.32861 4.6138L5.39289 0L1.89862 1.16475C0.479652 1.63775 -0.326999 3.15938 0.126437 4.58446C0.915976 7.06675 2.72972 11.0157 6.85708 15.1418C10.9832 19.2692 14.9321 21.0829 17.4156 21.8737C18.8407 22.3271 20.3624 21.5192 20.8354 20.1003L21.9989 16.6072L17.3863 13.6715C16.9243 13.377 16.3328 13.3831 15.8769 13.6874L14.409 14.6664C13.9593 14.9658 13.3812 14.9829 12.9228 14.6969C12.1749 14.2337 10.9808 13.4051 9.78791 12.211C8.59382 11.0181 7.76517 9.82403 7.30196 9.07726C7.01719 8.61894 7.03308 8.04084 7.33252 7.59107Z" fill="#2C3134"/>
</svg>
