<svg width="19" height="19" viewBox="0 0 19 19" fill="none" xmlns="http://www.w3.org/2000/svg">
<path d="M18.7071 17.2929C19.0976 17.6834 19.0976 18.3166 18.7071 18.7071C18.3166 19.0976 17.6834 19.0976 17.2929 18.7071L12.4013 13.8155C12.2068 13.621 11.8622 13.5945 11.6417 13.7452C11.6417 13.7452 11.5066 13.8501 11.2163 14.016C10.1208 14.6422 8.85219 15 7.5 15C3.35786 15 0 11.6421 0 7.5C0 3.35786 3.35786 0 7.5 0C11.6421 0 15 3.35786 15 7.5C15 8.86138 14.6373 10.138 14.0032 11.2386C13.8406 11.5209 13.7497 11.6358 13.7497 11.6358C13.5915 11.8641 13.6203 12.2061 13.8155 12.4013L18.7071 17.2929ZM7.5 13C10.5376 13 13 10.5376 13 7.5C13 4.46243 10.5376 2 7.5 2C4.46243 2 2 4.46243 2 7.5C2 10.5376 4.46243 13 7.5 13Z" fill="#666666"/>
</svg>
