<svg width="40" height="40" viewBox="0 0 40 40" fill="none" xmlns="http://www.w3.org/2000/svg">
<path d="M36.9491 26.3845L39.0579 26.2811L39.4559 24.93L37.746 23.6838L37.5963 23.691C37.6168 23.5928 37.6404 23.4946 37.6599 23.3959L37.7471 23.4398L39.8087 22.9839L39.979 21.5858L38.0876 20.642L37.9835 20.6652C37.9958 20.3721 38.0009 20.0796 37.9989 19.7876L38.0696 19.8067L40 18.9456L39.8897 17.5417L37.8491 16.9964L37.7763 17.0285C37.7466 16.8445 37.7107 16.662 37.6768 16.4796L39.3261 15.3011L38.9405 13.9458L36.967 13.8295C36.8373 13.4589 36.6998 13.0914 36.5475 12.7312L37.883 11.2539L37.2193 10.0134L35.3095 10.3174C35.169 10.0853 35.0228 9.85579 34.8715 9.63043L35.9208 7.84876L35.0228 6.76797L33.1725 7.47041C32.9935 7.27503 32.8114 7.08172 32.6232 6.89358L33.2766 5.10002L32.1976 4.20324L30.6236 5.16359C30.4108 5.00491 30.1949 4.84985 29.9738 4.69995L30.2692 2.83713L29.04 2.16623L27.6989 3.39277C27.3281 3.21342 26.947 3.04853 26.5593 2.89451L26.4732 1.09784L25.1321 0.696232L24.1197 2.10782C23.9571 2.06802 23.794 2.03597 23.632 2.00031L23.253 0.25482L21.8647 0.0827001L21.1031 1.63385C20.7257 1.60645 20.3493 1.59146 19.9749 1.58784L19.2784 0L17.884 0.110095L17.4558 1.74187C17.1142 1.78684 16.7752 1.84215 16.4388 1.90624L15.3644 0.37887L14.0197 0.767044L13.914 2.58593C13.4909 2.73376 13.073 2.89399 12.6632 3.07231L11.3119 1.83284L10.0815 2.50065L10.3605 4.28025C10.0513 4.47149 9.75024 4.67514 9.45228 4.88499L8.01169 4.02285L6.93984 4.9279L7.51372 6.4656C7.28653 6.67855 7.06549 6.89719 6.84958 7.12255L5.14334 6.49248L4.25458 7.57999L5.18283 9.12493C4.99769 9.38285 4.81973 9.64646 4.64742 9.91471L2.92323 9.63664L2.25755 10.8761L3.41761 12.1647C3.24171 12.5477 3.08118 12.941 2.92989 13.3406L1.10416 13.4315L0.70619 14.7821L2.1755 15.8536C2.14524 15.988 2.11498 16.1224 2.0878 16.2573L0.26668 16.6594L0.095902 18.0576L1.74983 18.883C1.73086 19.2324 1.71855 19.5813 1.71906 19.9302L0 20.6957L0.109749 22.1006L1.91753 22.5833C1.98677 23.0496 2.07806 23.5127 2.18421 23.9727L0.776963 24.9785L1.1616 26.3328L2.93605 26.4372C3.09759 26.8569 3.27145 27.274 3.46428 27.6839L2.27191 29.0035L2.93502 30.2434L4.73511 29.9566C4.96795 30.3127 5.21001 30.6595 5.4649 30.9955L4.59511 32.4727L5.4931 33.553L7.14908 32.9255C7.29371 33.0687 7.44243 33.2072 7.59218 33.3457L6.95728 35.0907L8.0358 35.9875L9.66101 34.9966C9.91538 35.1708 10.1733 35.3378 10.4364 35.499L10.141 37.3557L11.3703 38.0271L12.8048 36.7147C13.1125 36.845 13.4233 36.9685 13.7397 37.0822L13.8351 39.0562L15.1751 39.4573L16.3557 37.8126C16.4429 37.8296 16.5301 37.8431 16.6178 37.8591L17.0388 39.8L18.4271 39.9705L19.32 38.1532C19.6174 38.163 19.9128 38.1651 20.2082 38.1604L21.0149 40L22.4088 39.8894L22.9304 37.9067C23.2263 37.856 23.5207 37.7981 23.8135 37.733L23.8094 37.8017L25.0305 39.5364L26.3742 39.1487L26.4967 37.0249L26.4342 36.9349C26.7865 36.7969 27.1337 36.6475 27.4763 36.4883L27.4901 36.5747L29.0502 38.0074L30.281 37.3381L29.9518 35.237L29.8569 35.1502C30.1523 34.9537 30.4421 34.7491 30.7252 34.5351L30.8098 34.762L32.6253 35.8485L33.6971 34.9434L32.9535 32.9529L32.7068 32.8051C32.836 32.6748 32.9627 32.5415 33.0878 32.4066L33.1458 32.5032L35.1264 33.2351L36.0147 32.1476L34.9233 30.3272L34.7879 30.2776C34.9367 30.0594 35.0808 29.8382 35.2208 29.6129L35.351 29.7571L37.4353 30.093L38.0999 28.8546L36.6824 27.2792L36.4608 27.244C36.5942 26.9354 36.7209 26.6227 36.8383 26.3043L36.9491 26.3845ZM27.1373 20.5375C27.2881 19.1115 27.006 17.673 26.2998 16.3839C25.5275 14.9734 24.3269 13.889 22.8735 13.2568L24.8049 5.81485C31.8016 8.30775 35.8716 15.6836 34.3438 22.9586L27.1373 20.5375ZM6.84804 26.9866C4.96692 23.4884 4.54844 19.4624 5.66798 15.6479L13.1155 18.1501C12.7294 19.8424 12.9653 21.5977 13.8094 23.1395C14.5818 24.5501 15.7829 25.6345 17.2368 26.2661L15.2192 34.0404C11.6221 32.8459 8.65942 30.3577 6.84804 26.9866ZM23.4858 5.41221C23.534 5.4241 23.5817 5.43857 23.6289 5.45201L21.2119 12.758C18.1132 12.2184 15.0885 13.7696 13.7022 16.5126L6.05877 14.4973C8.7307 7.4978 16.1542 3.54008 23.4858 5.41221ZM18.9979 23.3483C18.0209 23.0568 17.2152 22.4061 16.728 21.5165C16.246 20.6358 16.1357 19.6253 16.4167 18.6716C16.985 16.7426 18.9794 15.6262 20.957 16.1312C21.0093 16.1441 21.0611 16.1586 21.1124 16.1741C22.0888 16.4661 22.895 17.1174 23.3817 18.0064C23.8638 18.8872 23.9741 19.8966 23.6935 20.8503C23.1094 22.8314 21.0124 23.9629 18.9979 23.3483ZM16.368 34.3769L18.8871 26.7618C22.2714 27.3526 25.5695 25.4551 26.7419 22.2293L34.0453 24.1541C31.7775 31.7951 24.0407 36.2651 16.368 34.3769Z" fill="white"/>
</svg>
