<svg width="25" height="23" viewBox="0 0 25 23" fill="none" xmlns="http://www.w3.org/2000/svg">
<path d="M21.9429 4.90111H19.6685V2.43454C19.6685 1.08914 18.5794 0 17.234 0H7.14345C5.79805 0 4.70891 1.08914 4.70891 2.43454V4.90111H2.43454C1.08914 4.90111 0 5.99025 0 7.33566V15.9526C0 17.298 1.08914 18.3872 2.43454 18.3872H4.70891V20.5655C4.70891 21.9109 5.79805 23 7.14345 23H17.234C18.5794 23 19.6685 21.9109 19.6685 20.5655V18.3872H21.9429C23.2883 18.3872 24.3774 17.298 24.3774 15.9526V7.33566C24.3774 5.99025 23.2883 4.90111 21.9429 4.90111ZM6.43872 2.40251C6.43872 2.01811 6.75905 1.69777 7.14345 1.69777H17.234C17.6184 1.69777 17.9387 2.01811 17.9387 2.40251V4.86908H6.40669V2.40251H6.43872ZM17.9708 20.5655C17.9708 20.9499 17.6504 21.2702 17.266 21.2702H7.14345C6.75905 21.2702 6.43872 20.9499 6.43872 20.5655V13.8384H17.9708V20.5655ZM22.6797 15.9526C22.6797 16.337 22.3593 16.6574 21.9749 16.6574H19.7006V12.1086H4.70891V16.6574H2.43454C2.05014 16.6574 1.72981 16.337 1.72981 15.9526V7.33566C1.72981 6.95125 2.05014 6.63092 2.43454 6.63092H21.9429C22.3273 6.63092 22.6476 6.95125 22.6476 7.33566V15.9526H22.6797Z" fill="white"/>
<path d="M18.9653 9.57803C19.3722 9.57803 19.7021 9.24817 19.7021 8.84126C19.7021 8.43435 19.3722 8.10449 18.9653 8.10449C18.5584 8.10449 18.2285 8.43435 18.2285 8.84126C18.2285 9.24817 18.5584 9.57803 18.9653 9.57803Z" fill="white"/>
<path d="M16.2744 16.1449H8.10589C7.88165 16.1449 7.68945 15.9527 7.68945 15.7284C7.68945 15.5042 7.88165 15.312 8.10589 15.312H16.2744C16.4986 15.312 16.6908 15.5042 16.6908 15.7284C16.7229 15.9527 16.5307 16.1449 16.2744 16.1449Z" fill="white"/>
<path d="M16.6248 9.25767H14.8949C14.6707 9.25767 14.4785 9.06547 14.4785 8.84124C14.4785 8.61701 14.6707 8.4248 14.8949 8.4248H16.6248C16.849 8.4248 17.0412 8.61701 17.0412 8.84124C17.0732 9.06547 16.881 9.25767 16.6248 9.25767Z" fill="white"/>
<path d="M16.2744 17.9707H8.10589C7.88165 17.9707 7.68945 17.7785 7.68945 17.5543C7.68945 17.3301 7.88165 17.1379 8.10589 17.1379H16.2744C16.4986 17.1379 16.6908 17.3301 16.6908 17.5543C16.7229 17.7785 16.5307 17.9707 16.2744 17.9707Z" fill="white"/>
<path d="M16.2733 19.7967H12.6215C12.3973 19.7967 12.2051 19.6045 12.2051 19.3802C12.2051 19.156 12.3973 18.9638 12.6215 18.9638H16.2733C16.4976 18.9638 16.6898 19.156 16.6898 19.3802C16.6898 19.6045 16.5296 19.7967 16.2733 19.7967Z" fill="white"/>
</svg>
