<svg width="51" height="61" viewBox="0 0 51 61" fill="none" xmlns="http://www.w3.org/2000/svg">
<path d="M49.1162 57.9035H1.02618C0.459141 57.9035 0 57.4437 0 56.8767V1.02678C0 0.459745 0.459147 0 1.02618 0H49.1162C49.6833 0 50.1424 0.459745 50.1424 1.02678V56.8767C50.1424 57.4437 49.6833 57.9035 49.1162 57.9035ZM2.05236 55.8499H48.0901V2.05355H2.05236V55.8499Z" fill="white"/>
<path d="M45.8806 61H4.29766C3.73063 61 3.27148 60.5403 3.27148 59.9733V56.8768C3.27148 56.3097 3.73063 55.85 4.29766 55.85H45.8806C46.4477 55.85 46.9068 56.3097 46.9068 56.8768V59.9733C46.9068 60.5403 46.4477 61 45.8806 61ZM5.32384 58.9465H44.8544V57.9035H5.32384V58.9465Z" fill="white"/>
<path d="M25.0711 57.9035C24.5041 57.9035 24.0449 57.4437 24.0449 56.8767V1.02678C24.0449 0.459745 24.5041 0 25.0711 0C25.6381 0 26.0973 0.459745 26.0973 1.02678V56.8767C26.0973 57.4437 25.6381 57.9035 25.0711 57.9035Z" fill="white"/>
<path d="M15.8482 37.9991H5.86212C5.29508 37.9991 4.83594 37.5394 4.83594 36.9723V22.8444C4.83594 22.2774 5.29508 21.8176 5.86212 21.8176H15.8482C16.4152 21.8176 16.8743 22.2774 16.8743 22.8444V36.9723C16.8743 37.5394 16.4152 37.9991 15.8482 37.9991ZM6.88829 35.9455H14.822V23.8712H6.88829V35.9455Z" fill="white"/>
<path d="M15.8482 28.4297H5.86212C5.29508 28.4297 4.83594 27.9699 4.83594 27.4029C4.83594 26.8358 5.29508 26.3761 5.86212 26.3761H15.8482C16.4152 26.3761 16.8743 26.8358 16.8743 27.4029C16.8743 27.9699 16.4152 28.4297 15.8482 28.4297Z" fill="white"/>
<path d="M28.8641 45.237C28.297 45.237 27.8379 44.7772 27.8379 44.2102V17.068C27.8379 16.501 28.297 16.0413 28.8641 16.0413C29.4311 16.0413 29.8902 16.501 29.8902 17.068V44.2102C29.8902 44.7772 29.4311 45.237 28.8641 45.237Z" fill="white"/>
<path d="M21.3113 45.237C20.7443 45.237 20.2852 44.7772 20.2852 44.2102V17.068C20.2852 16.501 20.7443 16.0413 21.3113 16.0413C21.8784 16.0413 22.3375 16.501 22.3375 17.068V44.2102C22.3375 44.7772 21.8784 45.237 21.3113 45.237Z" fill="white"/>
</svg>
