<svg width="68" height="69" viewBox="0 0 68 69" fill="none" xmlns="http://www.w3.org/2000/svg">
<path fill-rule="evenodd" clip-rule="evenodd" d="M35.2996 61.7742V7.25333H54.0373L40.6187 11.7262C40.1351 11.968 39.712 12.3307 39.712 12.9956V67.456C39.712 68.1813 40.256 68.7858 40.9813 68.7858C41.1627 68.7858 41.344 68.7253 41.5253 68.6649L62.4391 61.6533C62.9227 61.5324 63.2853 61.1698 63.2853 60.4444V47.0258H65.4009V60.4444C65.4009 61.1698 65.9449 61.7742 66.6702 61.7742C67.3956 61.7742 68 61.1698 68 60.4444V45.7564V11.3636V1.26933C68 0.604444 67.3956 0 66.6702 0H33.9698H1.26933C0.604444 0 0 0.604444 0 1.26933V11.3636V45.7564V60.4444C0 61.1698 0.604444 61.7742 1.26933 61.7742C1.99467 61.7742 2.59911 61.1698 2.59911 60.4444V47.0258H4.65422V60.4444C4.65422 61.1698 5.01689 61.5324 5.56089 61.6533L26.4747 68.6649C26.5956 68.7253 26.7769 68.7858 26.9582 68.7858C27.6836 68.7858 28.288 68.1813 28.288 67.456V12.9956C28.288 12.3307 27.8649 11.968 27.3813 11.7262L13.9627 7.25333H32.7004V61.7742H33.9698H35.2996ZM47.6907 34.3929C47.6907 33.6676 47.0862 33.0631 46.3609 33.0631C45.6356 33.0631 45.0916 33.6676 45.0916 34.3929V39.0471C45.0916 39.7724 45.6356 40.3769 46.3609 40.3769C47.0862 40.3769 47.6907 39.7724 47.6907 39.0471V34.3929ZM20.3093 34.3929C20.3093 33.6676 20.9138 33.0631 21.5787 33.0631C22.304 33.0631 22.9084 33.6676 22.9084 34.3929V39.0471C22.9084 39.7724 22.304 40.3769 21.5787 40.3769C20.9138 40.3769 20.3093 39.7724 20.3093 39.0471V34.3929ZM42.3111 13.9022L60.6862 7.73689V11.3636V45.7564V59.5378L42.3111 65.6427V13.9022ZM63.2853 44.4267V12.6329H65.4009V44.4267H63.2853ZM33.9698 4.65422H5.984C5.25867 4.65422 4.65422 5.25867 4.65422 5.984V10.0338H2.59911V2.59911H33.9698H65.4009V10.0338H63.2853V5.984C63.2853 5.25867 62.7413 4.65422 62.016 4.65422H33.9698ZM7.25333 7.73689L25.6889 13.9022V65.6427L7.25333 59.5378V45.7564V11.3636V7.73689ZM4.65422 12.6329V44.4267H2.59911V12.6329H4.65422Z" fill="white"/>
</svg>
