<svg width="59" height="55" viewBox="0 0 59 55" fill="none" xmlns="http://www.w3.org/2000/svg">
<path d="M0.74596 5.37067e-06C0.648265 -0.00036604 0.551456 0.0185298 0.461071 0.0556127C0.370687 0.0926956 0.288502 0.147237 0.219219 0.216117C0.149936 0.284996 0.0949155 0.36686 0.057305 0.457026C0.0196945 0.547192 0.000232747 0.64389 3.31965e-05 0.741586V7.02108C0.000355313 7.0995 0.0130904 7.17738 0.0377652 7.25182C0.0120087 7.3295 -0.000740313 7.4109 3.31965e-05 7.49273V13.7678C-0.000108429 13.8477 0.0126325 13.9271 0.0377652 14.0029C0.0124782 14.0792 -0.000264717 14.1591 3.31965e-05 14.2395V20.5146C-0.000108429 20.5945 0.0126325 20.6739 0.0377652 20.7497C0.0124782 20.826 -0.000264717 20.9059 3.31965e-05 20.9862V27.2613C-0.000108429 27.3412 0.0126325 27.4206 0.0377652 27.4965C0.0124782 27.5727 -0.000264717 27.6526 3.31965e-05 27.733V34.0081C-0.000108429 34.088 0.0126325 34.1674 0.0377652 34.2432C0.0124782 34.3195 -0.000264717 34.3994 3.31965e-05 34.4798V40.7535C-0.000264717 40.8338 0.0124782 40.9137 0.0377652 40.99C0.0124782 41.0663 -0.000264717 41.1462 3.31965e-05 41.2266V47.5002C-0.000264717 47.5806 0.0124782 47.6605 0.0377652 47.7368C0.0126325 47.8126 -0.000108429 47.892 3.31965e-05 47.9719V54.0932C0.000232747 54.1909 0.0196945 54.2876 0.057305 54.3778C0.0949155 54.4679 0.149936 54.5498 0.219219 54.6187C0.288502 54.6875 0.370687 54.7421 0.461071 54.7792C0.551456 54.8163 0.648265 54.8352 0.74596 54.8348H8.92374C9.00419 54.8346 9.08408 54.8214 9.16029 54.7956C9.23604 54.8212 9.31543 54.8345 9.39539 54.8348H25.1268C25.2068 54.8345 25.2862 54.8212 25.3619 54.7956C25.4381 54.8214 25.518 54.8346 25.5985 54.8348H41.3299C41.4118 54.8351 41.4932 54.8218 41.5708 54.7956C41.6465 54.8212 41.7259 54.8345 41.8059 54.8348H57.3776C57.5741 54.8344 57.7625 54.7561 57.9015 54.6171C58.0405 54.4781 58.1187 54.2898 58.1191 54.0932V47.9719C58.1182 47.8939 58.105 47.8165 58.08 47.7426C58.1062 47.665 58.1194 47.5836 58.1191 47.5017V41.2266C58.119 41.1461 58.1057 41.0663 58.08 40.9901C58.1056 40.9143 58.1188 40.8349 58.1191 40.7549V34.4798C58.119 34.3994 58.1057 34.3195 58.08 34.2433C58.1056 34.1675 58.1188 34.0882 58.1191 34.0082V27.7331C58.119 27.6526 58.1057 27.5727 58.08 27.4965C58.1056 27.4208 58.1188 27.3414 58.1191 27.2614V20.9863C58.1188 20.9064 58.1056 20.827 58.08 20.7512C58.1057 20.675 58.119 20.5951 58.1191 20.5147V14.2396C58.1188 14.1596 58.1056 14.0802 58.08 14.0045C58.1057 13.9283 58.119 13.8484 58.1191 13.7679V7.49281C58.1188 7.41284 58.1056 7.33346 58.08 7.25771C58.1057 7.1815 58.119 7.10161 58.1191 7.02116V0.741667C58.1187 0.545111 58.0405 0.356721 57.9015 0.217735C57.7625 0.078749 57.5741 0.000489348 57.3776 8.68606e-05H49.3536C49.2731 0.000256946 49.1932 0.0134906 49.117 0.0392708C49.0413 0.0136449 48.9619 0.000413277 48.8819 8.68606e-05H33.1505C33.0705 0.000413277 32.9912 0.0136449 32.9154 0.0392708C32.8392 0.0134906 32.7593 0.000256946 32.6789 8.68606e-05H16.9489C16.8685 0.000256946 16.7886 0.0134906 16.7124 0.0392708C16.6366 0.0136449 16.5572 0.000413277 16.4773 8.68606e-05H0.745857L0.74596 5.37067e-06ZM1.48608 1.48755H15.73V6.27519H1.48608V1.48755ZM17.6893 1.48755H31.9391V6.27519H17.6893V1.48755ZM33.8963 1.48755H48.1416V6.27519H33.8963V1.48755ZM50.0995 1.48755H56.6373V6.27519H50.0995V1.48755ZM1.48608 8.23433H8.18353V13.022H1.48608V8.23433ZM10.1409 8.23433H24.3862V13.022H10.1409V8.23433ZM26.3441 8.23433H40.588V13.022H26.3441V8.23433ZM42.5474 8.23433H56.6374V13.022H42.5474V8.23433ZM1.48608 14.9796H15.73V19.7687H1.48608V14.9796ZM17.6893 14.9796H31.9391V19.7687H17.6893V14.9796ZM33.8963 14.9796H48.1416V19.7687H33.8963V14.9796ZM50.0995 14.9796H56.6373V19.7687H50.0995V14.9796ZM1.48608 21.7264H8.18353V26.5198H1.48608V21.7264ZM10.1409 21.7264H24.3862V26.5198H10.1409V21.7264ZM26.3441 21.7264H40.588V26.5198H26.3441V21.7264ZM42.5474 21.7264H56.6374V26.5198H42.5474V21.7264ZM1.48608 28.4732H15.73V33.2666H1.48608V28.4732ZM17.6893 28.4732H31.9391V33.2666H17.6893V28.4732ZM33.8963 28.4732H48.1416V33.2666H33.8963V28.4732ZM50.0995 28.4732H56.6373V33.2666H50.0995V28.4732ZM1.48608 35.22H8.18353V40.0134H1.48608V35.22ZM10.1409 35.22H24.3862V40.0134H10.1409V35.22ZM26.3441 35.22H40.588V40.0134H26.3441V35.22ZM42.5474 35.22H56.6374V40.0134H42.5474V35.22ZM1.48608 41.9711H15.73V46.7601H1.48608V41.9711ZM17.6893 41.9711H31.9391V46.7601H17.6893V41.9711ZM33.8963 41.9711H48.1416V46.7601H33.8963V41.9711ZM50.0995 41.9711H56.6373V46.7601H50.0995V41.9711ZM1.48608 48.7178H8.18353V53.3473H1.48608V48.7178ZM10.1409 48.7178H24.3862V53.3473H10.1409V48.7178ZM26.3441 48.7178H40.588V53.3473H26.3441V48.7178ZM42.5474 48.7178H56.6374V53.3473H42.5474V48.7178Z" fill="white"/>
</svg>
