<svg width="60" height="60" viewBox="0 0 60 60" fill="none" xmlns="http://www.w3.org/2000/svg">
<path d="M51 34H41.95H27V18V9C27 8.447 26.552 8 26 8H23.435C22.986 8 22.593 8.299 22.472 8.73L21.623 11.767C20.632 11.963 19.659 12.224 18.717 12.546L16.482 10.351C16.189 10.063 15.748 9.985 15.37 10.154C13.747 10.885 12.195 11.789 10.758 12.836C10.427 13.077 10.277 13.495 10.378 13.892L11.154 16.94C10.398 17.605 9.685 18.322 9.025 19.08L6 18.301C5.603 18.199 5.181 18.351 4.94 18.685C3.897 20.13 3 21.689 2.272 23.319C2.105 23.692 2.183 24.13 2.468 24.423L4.655 26.676C4.333 27.626 4.072 28.606 3.878 29.601L0.736 30.457C0.302 30.576 0 30.971 0 31.422V36.578C0 37.029 0.302 37.424 0.737 37.543L3.879 38.399C4.073 39.393 4.334 40.373 4.656 41.324L2.468 43.575C2.183 43.869 2.105 44.306 2.272 44.679C3 46.311 3.897 47.87 4.939 49.315C5.18 49.65 5.6 49.798 6 49.699L9.025 48.92C9.685 49.678 10.398 50.395 11.154 51.06L10.377 54.109C10.276 54.505 10.427 54.923 10.757 55.165C12.195 56.213 13.748 57.115 15.37 57.847C15.745 58.014 16.187 57.939 16.481 57.649L18.716 55.455C19.658 55.777 20.632 56.038 21.622 56.234L22.471 59.271C22.592 59.703 22.985 60.001 23.434 60.001H28.564C29.013 60.001 29.406 59.702 29.527 59.271L30.376 56.234C31.365 56.039 32.338 55.778 33.282 55.455L35.517 57.65C35.811 57.939 36.253 58.018 36.629 57.847C38.252 57.116 39.804 56.212 41.241 55.165C41.572 54.924 41.722 54.506 41.621 54.109L40.845 51.061C41.601 50.396 42.314 49.679 42.974 48.921L46 49.699C46.398 49.802 46.819 49.649 47.06 49.315C48.103 47.869 49 46.309 49.727 44.679C49.894 44.306 49.816 43.868 49.531 43.575L47.344 41.323C47.666 40.372 47.927 39.393 48.121 38.398L51.263 37.542C51.698 37.424 52 37.029 52 36.578V35C52 34.447 51.552 34 51 34ZM26 36H40.848C39.864 43.371 33.537 49 26 49C17.729 49 11 42.271 11 34C11 26.065 17.194 19.55 25 19.033V35C25 35.553 25.448 36 26 36ZM46.987 36.636C46.611 36.739 46.328 37.051 46.264 37.437C46.048 38.736 45.709 40.011 45.257 41.227C45.123 41.589 45.208 41.996 45.477 42.272L47.618 44.477C47.1 45.557 46.5 46.6 45.828 47.59L42.867 46.827C42.493 46.735 42.093 46.861 41.846 47.161C41.019 48.167 40.09 49.1 39.085 49.936C38.789 50.182 38.66 50.578 38.755 50.952L39.515 53.936C38.532 54.61 37.497 55.212 36.424 55.734L34.236 53.586C33.959 53.314 33.546 53.228 33.184 53.363C31.976 53.817 30.708 54.158 29.416 54.375C29.034 54.439 28.723 54.719 28.619 55.092L27.806 58H24.194L23.381 55.092C23.277 54.719 22.966 54.44 22.585 54.375C21.288 54.156 20.02 53.816 18.816 53.363C18.453 53.227 18.042 53.313 17.764 53.586L15.576 55.733C14.503 55.212 13.468 54.611 12.485 53.936L13.246 50.951C13.341 50.577 13.213 50.181 12.916 49.935C11.911 49.099 10.982 48.165 10.155 47.16C9.907 46.859 9.509 46.731 9.133 46.826L6.172 47.589C5.5 46.6 4.9 45.557 4.381 44.477L6.523 42.273C6.792 41.996 6.877 41.589 6.743 41.227C6.291 40.011 5.952 38.736 5.736 37.437C5.672 37.051 5.389 36.739 5.013 36.636L2 35.814V32.185L5.013 31.364C5.389 31.261 5.672 30.949 5.736 30.563C5.952 29.264 6.291 27.989 6.743 26.773C6.877 26.411 6.792 26.004 6.523 25.728L4.382 23.523C4.9 22.443 5.5 21.4 6.172 20.41L9.133 21.173C9.509 21.267 9.908 21.14 10.154 20.839C10.981 19.833 11.91 18.9 12.915 18.064C13.211 17.818 13.34 17.422 13.245 17.048L12.485 14.064C13.468 13.39 14.503 12.788 15.576 12.266L17.764 14.414C18.042 14.686 18.453 14.774 18.816 14.637C20.02 14.184 21.288 13.844 22.585 13.625C22.967 13.561 23.277 13.281 23.381 12.908L24.194 10H25V17.051C16.092 17.573 9 24.964 9 34C9 43.374 16.626 51 26 51C34.631 51 41.844 44.481 42.844 36H49.319L46.987 36.636Z" fill="white"/>
<path d="M59.263 22.457L56.121 21.601C55.927 20.607 55.666 19.627 55.344 18.676L57.532 16.425C57.817 16.131 57.895 15.694 57.728 15.321C57 13.69 56.103 12.131 55.061 10.685C54.821 10.351 54.402 10.205 54 10.301L50.975 11.08C50.315 10.322 49.602 9.605 48.846 8.94L49.623 5.891C49.724 5.495 49.573 5.077 49.243 4.835C47.805 3.787 46.252 2.885 44.63 2.153C44.255 1.987 43.814 2.062 43.519 2.351L41.284 4.545C40.342 4.223 39.368 3.962 38.378 3.766L37.528 0.73C37.407 0.299 37.014 0 36.565 0H34C33.448 0 33 0.447 33 1V10V27C33 27.553 33.448 28 34 28H49.95H59C59.552 28 60 27.553 60 27V23.422C60 22.971 59.698 22.576 59.263 22.457ZM35 26V11.033C42.806 11.55 49 18.065 49 26H35ZM58 26H51C51 16.964 43.908 9.573 35 9.051V2H35.806L36.619 4.908C36.723 5.281 37.034 5.56 37.415 5.625C38.712 5.844 39.98 6.184 41.184 6.637C41.547 6.774 41.958 6.687 42.236 6.414L44.424 4.267C45.497 4.788 46.532 5.389 47.515 6.064L46.754 9.049C46.659 9.423 46.787 9.819 47.084 10.065C48.089 10.901 49.018 11.835 49.845 12.84C50.092 13.14 50.491 13.267 50.867 13.174L53.828 12.411C54.499 13.4 55.099 14.443 55.619 15.523L53.477 17.727C53.208 18.004 53.123 18.411 53.257 18.773C53.709 19.989 54.048 21.264 54.264 22.563C54.328 22.949 54.611 23.261 54.987 23.364L58 24.186V26Z" fill="white"/>
<path d="M27 38H25V40H27V38Z" fill="white"/>
<path d="M23 34H21V36H23V34Z" fill="white"/>
<path d="M39 22H37V24H39V22Z" fill="white"/>
</svg>
