<svg width="73" height="23" viewBox="0 0 73 23" fill="none" xmlns="http://www.w3.org/2000/svg">
<path fill-rule="evenodd" clip-rule="evenodd" d="M72.4647 17.7827H56.4602L52.2368 10.4474H64.6847L72.4647 17.7827ZM51.5699 9.33594L48.458 4.00112H58.0162L63.5733 9.33594H51.5699ZM48.0134 3.11198L46.2351 0H53.7928L57.127 3.11198H48.0134ZM54.9042 17.7827H43.79L42.234 10.4474H50.9031L54.9042 17.7827ZM42.0117 9.33594L40.9003 4.00112H47.5688L50.2362 9.33594H42.0117ZM40.678 3.11198L40.0112 0H45.346L46.902 3.11198H40.678ZM42.4563 17.7827H30.0084L31.3421 10.4474H41.1226L42.4563 17.7827ZM31.5644 9.33594L32.4535 4.00112H40.0112L40.9003 9.33594H31.5644ZM32.6758 3.11198L33.3426 0H39.122L39.7889 3.11198H32.6758ZM28.6747 17.7827H17.5605L21.5616 10.4474H30.2307L28.6747 17.7827ZM22.2284 9.33594L24.8958 4.00112H31.5644L30.4529 9.33594H22.2284ZM25.5627 3.11198L27.1187 0H32.4535L31.7866 3.11198H25.5627ZM16.0045 17.7827H0L7.77995 10.4474H20.2279L16.0045 17.7827ZM8.89137 9.33594L14.4485 4.00112H24.0067L20.8947 9.33594H8.89137ZM15.3376 3.11198L18.6719 0H26.2295L24.4513 3.11198H15.3376Z" fill="white"/>
<path d="M72.4668 23L72.4668 19.047L-0.000526617 19.047L-0.000526617 23L72.4668 23Z" fill="white"/>
</svg>
