<svg width="66" height="67" viewBox="0 0 66 67" fill="none" xmlns="http://www.w3.org/2000/svg">
<path d="M5.43677 1.64633L1.00496 45.9644C0.952515 46.3807 1.32405 46.7987 1.74359 46.7954H32.0277V47.534V57.8749V58.6136H22.4254C22.0387 58.6137 21.6868 58.9655 21.6868 59.3522V65.2613C21.6868 65.6481 22.0387 65.9999 22.4254 65.9999H43.1072C43.494 65.9999 43.8458 65.6481 43.8458 65.2613V59.3522C43.8458 58.9655 43.494 58.6137 43.1072 58.6136H33.5049V57.8749V47.534V46.7954H63.789C64.2086 46.7954 64.5801 46.3807 64.5277 45.9644L60.0958 1.64633C60.0508 1.29132 59.715 0.99725 59.3572 1.00002H6.17541C5.72787 1.00224 5.50148 1.39499 5.43677 1.64633ZM6.84476 2.47729H23.1179L22.2177 15.7727H5.5291L6.84476 2.47729ZM24.5951 2.47729H40.1988L41.076 15.7727H23.718L24.5951 2.47729ZM41.6761 2.47729H58.6879L60.0035 15.7727H42.5763L41.6761 2.47729ZM5.36749 17.25H22.1254L21.2482 30.5455H4.05183L5.36749 17.25ZM23.6026 17.25H41.1913L42.0685 30.5455H22.7254L23.6026 17.25ZM42.6686 17.25H60.1651L61.4808 30.5455H43.5458L42.6686 17.25ZM3.89022 32.0228H21.1328L20.2557 45.3181H2.57456L3.89022 32.0228ZM22.6331 32.0228H42.1609L43.061 45.3181H21.7329L22.6331 32.0228ZM43.6612 32.0228H61.6424L62.958 45.3181H44.5383L43.6612 32.0228ZM23.164 60.0909H42.3686V64.5227H23.164V60.0909Z" fill="white" stroke="white"/>
</svg>
