<svg width="79" height="71" viewBox="0 0 79 71" fill="none" xmlns="http://www.w3.org/2000/svg">
<path d="M77.1599 68.4519H73.8285V1.77403C73.8285 1.34676 73.4817 1 73.0545 1H6.04528C5.61802 1 5.27125 1.34676 5.27125 1.77403V68.4519H1.49864C1.07137 68.4519 0.724609 68.7987 0.724609 69.226C0.724609 69.6532 1.07137 70 1.49864 70H6.04528H15.8089H33.6193H45.0362H62.8481H73.0529H77.1584C77.5856 70 77.9324 69.6532 77.9324 69.226C77.9324 68.7987 77.5872 68.4519 77.1599 68.4519ZM16.5829 68.4519V11.8658H32.8452V68.4519H16.5829ZM34.3949 68.4519V11.8658H44.2637V68.4519H34.3949ZM45.8118 68.4519V11.8658H62.0757V68.4519H45.8118ZM63.6222 68.4519V11.0918C63.6222 10.6645 63.2754 10.3178 62.8481 10.3178H45.0377H33.6208H15.8089C15.3816 10.3178 15.0348 10.6645 15.0348 11.0918V68.4519H6.81931V2.54806H72.2789V68.4519H63.6222Z" fill="white" stroke="white"/>
<path d="M28.2601 37.0558C26.5495 37.0558 25.1562 38.4475 25.1562 40.1597C25.1562 41.8718 26.548 43.2635 28.2601 43.2635C29.9723 43.2635 31.364 41.8718 31.364 40.1597C31.364 38.4475 29.9707 37.0558 28.2601 37.0558ZM28.2601 41.7155C27.4025 41.7155 26.7043 41.0173 26.7043 40.1597C26.7043 39.302 27.4025 38.6039 28.2601 38.6039C29.1177 38.6039 29.8159 39.302 29.8159 40.1597C29.8159 41.0173 29.1177 41.7155 28.2601 41.7155Z" fill="white" stroke="white"/>
<path d="M50.4007 37.0558C48.6901 37.0558 47.2969 38.4475 47.2969 40.1597C47.2969 41.8718 48.6886 43.2635 50.4007 43.2635C52.1129 43.2635 53.5046 41.8718 53.5046 40.1597C53.5046 38.4475 52.1129 37.0558 50.4007 37.0558ZM50.4007 41.7155C49.5431 41.7155 48.8449 41.0173 48.8449 40.1597C48.8449 39.302 49.5431 38.6039 50.4007 38.6039C51.2584 38.6039 51.9565 39.302 51.9565 40.1597C51.9565 41.0173 51.2584 41.7155 50.4007 41.7155Z" fill="white" stroke="white"/>
<path d="M25.1888 23.3369C25.1764 23.3911 25.1578 23.4437 25.1562 23.4979C25.1562 23.4995 25.1562 23.501 25.1562 23.5026C25.1562 23.5041 25.1562 23.5057 25.1562 23.5072C25.1562 23.5614 25.1764 23.614 25.1888 23.6682C25.198 23.71 25.1965 23.7533 25.2135 23.7936C25.2135 23.7951 25.2151 23.7967 25.2151 23.7982C25.2538 23.8942 25.3111 23.9794 25.3823 24.0506L27.7121 26.3727C27.8638 26.5228 28.0604 26.5987 28.2586 26.5987C28.4567 26.5987 28.6549 26.5228 28.8066 26.3711C29.1084 26.0677 29.1069 25.5785 28.805 25.2766L27.8019 24.2766H30.5884C31.0156 24.2766 31.3624 23.9298 31.3624 23.5026C31.3624 23.0753 31.0156 22.7285 30.5884 22.7285H27.8019L28.805 21.7285C29.1069 21.4266 29.1084 20.9374 28.8066 20.634C28.5047 20.3306 28.0155 20.3306 27.7121 20.6325L25.3823 22.9545C25.3111 23.0258 25.2538 23.1124 25.2151 23.2069C25.2151 23.2084 25.2135 23.21 25.2135 23.2115C25.1965 23.2518 25.198 23.2951 25.1888 23.3369Z" fill="white" stroke="white"/>
<path d="M53.4829 23.3865C53.4736 23.3276 53.4705 23.2673 53.4489 23.2115C53.4489 23.21 53.4473 23.2084 53.4473 23.2069C53.4148 23.131 53.3653 23.0676 53.3126 23.0056C53.3002 22.9902 53.2956 22.9716 53.2801 22.9561H53.2786C53.277 22.9546 53.277 22.9546 53.2755 22.9546L50.9472 20.634C50.6484 20.3337 50.1546 20.3321 49.8527 20.6356C49.5524 20.939 49.5524 21.4282 49.8558 21.73L50.859 22.7301H48.0709C47.6436 22.7301 47.2969 23.0768 47.2969 23.5041C47.2969 23.9314 47.6436 24.2781 48.0709 24.2781H50.859L49.8558 25.2766C49.5524 25.5785 49.5524 26.0677 49.8527 26.3711C50.0044 26.5228 50.2041 26.5987 50.4007 26.5987C50.5973 26.5987 50.797 26.5228 50.9472 26.3727L53.2755 24.0521C53.277 24.0521 53.277 24.0521 53.2786 24.0506H53.2801C53.2941 24.0366 53.2987 24.0181 53.3126 24.0026C53.3653 23.9407 53.4148 23.8756 53.4473 23.7998C53.4473 23.7982 53.4489 23.7967 53.4489 23.7951C53.4721 23.7394 53.4752 23.679 53.4829 23.6202C53.4891 23.5815 53.5061 23.5444 53.5061 23.5041C53.5046 23.4623 53.4876 23.4252 53.4829 23.3865Z" fill="white" stroke="white"/>
</svg>
